<svg width="24" height="24" viewBox="0 0 24 24" fill="none" xmlns="http://www.w3.org/2000/svg">
  <path fill-rule="evenodd" clip-rule="evenodd" d="M6.5 3.5H6.63015C6.98914 3.5 7.28015 3.79101 7.28015 4.15C7.28015 4.50898 6.98914 4.8 6.63015 4.8H6.5C5.56112 4.8 4.8 5.56112 4.8 6.5V6.62778C4.8 6.98676 4.50899 7.27778 4.15 7.27778C3.79102 7.27778 3.5 6.98676 3.5 6.62778V6.5C3.5 4.84315 4.84315 3.5 6.5 3.5ZM10.7635 3.5C10.4045 3.5 10.1135 3.79101 10.1135 4.15C10.1135 4.50898 10.4045 4.8 10.7635 4.8H13.2383C13.5973 4.8 13.8883 4.50898 13.8883 4.15C13.8883 3.79101 13.5973 3.5 13.2383 3.5H10.7635ZM19.2 6.5V6.62778C19.2 6.98676 19.491 7.27778 19.85 7.27778C20.209 7.27778 20.5 6.98676 20.5 6.62778V6.5C20.5 4.84315 19.1569 3.5 17.5 3.5H17.3716C17.0127 3.5 16.7216 3.79101 16.7216 4.15C16.7216 4.50898 17.0127 4.8 17.3716 4.8H17.5C18.4389 4.8 19.2 5.56112 19.2 6.5ZM19.85 10.1111C19.491 10.1111 19.2 10.4021 19.2 10.7611V13.2379C19.2 13.5969 19.491 13.8879 19.85 13.8879C20.209 13.8879 20.5 13.5969 20.5 13.2379V10.7611C20.5 10.4021 20.209 10.1111 19.85 10.1111ZM13.8883 19.85C13.8883 19.491 13.5973 19.2 13.2383 19.2H10.7635C10.4045 19.2 10.1135 19.491 10.1135 19.85C10.1135 20.209 10.4045 20.5 10.7635 20.5H13.2383C13.5973 20.5 13.8883 20.209 13.8883 19.85ZM4.8 17.5V17.3712C4.8 17.0122 4.50898 16.7212 4.15 16.7212C3.79101 16.7212 3.5 17.0122 3.5 17.3712V17.5C3.5 19.1569 4.84315 20.5 6.5 20.5H6.63015C6.98914 20.5 7.28015 20.209 7.28015 19.85C7.28015 19.491 6.98914 19.2 6.63015 19.2H6.5C5.56112 19.2 4.8 18.4389 4.8 17.5ZM4.15 13.8879C4.50898 13.8879 4.8 13.5969 4.8 13.2379V10.7611C4.8 10.4021 4.50898 10.1111 4.15 10.1111C3.79101 10.1111 3.5 10.4021 3.5 10.7611V13.2379C3.5 13.5969 3.79101 13.8879 4.15 13.8879Z" fill="#768393"></path>
  <path d="M18.3311 19.8275L18.7396 20.1158L18.3311 19.8275L16.6138 22.2607C16.596 22.2859 16.5795 22.2947 16.567 22.2989C16.5515 22.3042 16.5304 22.3058 16.5073 22.2999C16.4841 22.294 16.4665 22.2824 16.4554 22.2704C16.4464 22.2606 16.4362 22.2451 16.4327 22.2143L15.4828 13.8886C15.4795 13.8595 15.4853 13.8421 15.4918 13.8303C15.4997 13.816 15.5136 13.8009 15.5337 13.7898C15.5537 13.7787 15.5739 13.7748 15.5902 13.7758C15.6037 13.7766 15.6215 13.7808 15.6444 13.7991L22.199 19.0199C22.2232 19.0392 22.231 19.0561 22.2345 19.0688C22.2389 19.0846 22.2393 19.1058 22.232 19.1285C22.2247 19.1513 22.2122 19.1683 22.1995 19.1786C22.1893 19.187 22.1731 19.1963 22.1423 19.198L19.1687 19.3635C18.8333 19.3822 18.5248 19.5531 18.3311 19.8275Z" fill="#768393" stroke="#768393"></path>
</svg>